<svg xmlns="http://www.w3.org/2000/svg" viewBox="0 0 48 48" fill="none">
  <circle cx="24" cy="24" r="22" fill="#5aadff" opacity="0.12"/>
  <g stroke="#3b93f0" stroke-width="2.2" stroke-linecap="round" stroke-linejoin="round">
    <line x1="24" y1="8" x2="24" y2="40"/>
    <line x1="10.15" y1="16" x2="37.85" y2="32"/>
    <line x1="10.15" y1="32" x2="37.85" y2="16"/>
    <line x1="24" y1="8" x2="20" y2="12"/>
    <line x1="24" y1="8" x2="28" y2="12"/>
    <line x1="24" y1="40" x2="20" y2="36"/>
    <line x1="24" y1="40" x2="28" y2="36"/>
    <line x1="10.15" y1="16" x2="14" y2="16"/>
    <line x1="10.15" y1="16" x2="12" y2="12.5"/>
    <line x1="37.85" y1="32" x2="34" y2="32"/>
    <line x1="37.85" y1="32" x2="36" y2="35.5"/>
    <line x1="10.15" y1="32" x2="14" y2="32"/>
    <line x1="10.15" y1="32" x2="12" y2="35.5"/>
    <line x1="37.85" y1="16" x2="34" y2="16"/>
    <line x1="37.85" y1="16" x2="36" y2="12.5"/>
    <circle cx="24" cy="24" r="2.5" fill="#5aadff" stroke="none"/>
  </g>
</svg>
